<svg xmlns="http://www.w3.org/2000/svg" width="29.77" height="29.77" viewBox="0 0 29.77 29.77">
  <g id="Group_79" data-name="Group 79" transform="translate(-1126 -324)">
    <circle id="Ellipse_90" data-name="Ellipse 90" cx="1" cy="1" r="1" transform="translate(1127 332)" fill="#3a7217"/>
    <path id="Subtraction_2" data-name="Subtraction 2" d="M27.381,29.77A27.228,27.228,0,0,1,12.3,25.234,27.475,27.475,0,0,1,2.367,13.526a4.8,4.8,0,0,0,1.618-.436A25.825,25.825,0,0,0,13.32,23.925a25.592,25.592,0,0,0,14.061,4.191.735.735,0,0,0,.734-.734V21.929a.735.735,0,0,0-.734-.734,18.556,18.556,0,0,1-5.836-.932.724.724,0,0,0-.233-.038.738.738,0,0,0-.517.213l-3.851,2.918a.834.834,0,0,1-.5.168.813.813,0,0,1-.376-.092A20.526,20.526,0,0,1,6.337,13.7a.822.822,0,0,1,.077-.873L9.257,9.06a.826.826,0,0,0,.261-.848A18.552,18.552,0,0,1,8.59,2.389a.736.736,0,0,0-.735-.734H2.388a.735.735,0,0,0-.734.734c0,.494.014.995.042,1.487a4.807,4.807,0,0,0-1.634.37C.02,3.624,0,3,0,2.389A2.391,2.391,0,0,1,2.388,0H7.855a2.391,2.391,0,0,1,2.389,2.389,16.937,16.937,0,0,0,.849,5.317,2.412,2.412,0,0,1-.592,2.438L8.048,13.4a18.553,18.553,0,0,0,8.318,8.315l3.347-2.527a2.258,2.258,0,0,1,1.59-.623,2.373,2.373,0,0,1,.769.126,16.9,16.9,0,0,0,5.308.845,2.391,2.391,0,0,1,2.389,2.389v5.452A2.391,2.391,0,0,1,27.381,29.77Z" transform="translate(1126.001 324)" fill="#3a7217"/>
  </g>
</svg>
