<svg xmlns="http://www.w3.org/2000/svg" width="30.771" height="30.77" viewBox="0 0 30.771 30.77">
  <g id="Group_82" data-name="Group 82" transform="translate(-1423 -586)">
    <path id="Subtraction_3" data-name="Subtraction 3" d="M-10238.613,30.77A15.4,15.4,0,0,1-10254,15.386,15.4,15.4,0,0,1-10238.613,0a15.341,15.341,0,0,1,7.786,2.12,5.5,5.5,0,0,0-1.332,1.454,13.444,13.444,0,0,0-6.454-1.652,13.48,13.48,0,0,0-13.465,13.464,13.478,13.478,0,0,0,13.465,13.462,13.476,13.476,0,0,0,13.461-13.462,13.425,13.425,0,0,0-.517-3.7,5.47,5.47,0,0,0,1.712-.981,15.361,15.361,0,0,1,.728,4.679A15.4,15.4,0,0,1-10238.613,30.77Zm5.087-8.937h0l-6.049-6.049V5.77h1.923v9.218l5.486,5.487-1.358,1.358Z" transform="translate(11677 586)" fill="#3a7217"/>
    <circle id="Ellipse_93" data-name="Ellipse 93" cx="1.5" cy="1.5" r="1.5" transform="translate(1448 591)" fill="#3a7217"/>
  </g>
</svg>
