<svg xmlns="http://www.w3.org/2000/svg" width="21.635" height="30.77" viewBox="0 0 21.635 30.77">
  <g id="Group_80" data-name="Group 80" transform="translate(-1087 -324)">
    <path id="Subtraction_1" data-name="Subtraction 1" d="M-10243.024,30.77h-.008a.908.908,0,0,1-.767-.427l-8.588-13.837a10.807,10.807,0,0,1-1.613-5.69A10.829,10.829,0,0,1-10243.184,0a10.83,10.83,0,0,1,10.818,10.816,10.8,10.8,0,0,1-1.526,5.543l-.2.337a4.459,4.459,0,0,0-1.715-.644l.37-.617a9.044,9.044,0,0,0,1.276-4.619,9.034,9.034,0,0,0-9.022-9.025,9.035,9.035,0,0,0-9.025,9.025,8.994,8.994,0,0,0,1.356,4.74l7.8,12.581,2.954-4.93a4.487,4.487,0,0,0,1.376,1.21l-3.54,5.913A.909.909,0,0,1-10243.024,30.77Zm-.157-14.545a5.369,5.369,0,0,1-3.839-1.593,5.38,5.38,0,0,1-1.57-3.814,5.416,5.416,0,0,1,5.409-5.409,5.414,5.414,0,0,1,5.407,5.409,5.39,5.39,0,0,1-1.557,3.8A5.36,5.36,0,0,1-10243.182,16.225Zm0-9.025a3.622,3.622,0,0,0-3.618,3.618,3.621,3.621,0,0,0,3.618,3.616,3.617,3.617,0,0,0,3.61-3.616A3.618,3.618,0,0,0-10243.182,7.2Z" transform="translate(11341 324)" fill="#3a7217"/>
    <circle id="Ellipse_88" data-name="Ellipse 88" cx="1" cy="1" r="1" transform="translate(1103 343)" fill="#3a7217"/>
  </g>
</svg>
