<svg xmlns="http://www.w3.org/2000/svg" width="34.402" height="25.801" viewBox="0 0 34.402 25.801">
  <g id="Group_81" data-name="Group 81" transform="translate(-1089 -590.999)">
    <path id="Subtraction_4" data-name="Subtraction 4" d="M-10220.824,15.8h-27.949a3.229,3.229,0,0,1-3.227-3.224V-6.774a3.23,3.23,0,0,1,3.227-3.226h27.949a3.23,3.23,0,0,1,3.227,3.226V12.576A3.229,3.229,0,0,1-10220.824,15.8Zm-29.024-21.3h0V12.576a1.077,1.077,0,0,0,1.075,1.075h27.949a1.077,1.077,0,0,0,1.075-1.075V-5.5l-2.727,2.364a5.029,5.029,0,0,0-1.318-1.7l3.382-2.931a1.09,1.09,0,0,0-.412-.082h-27.952a1.094,1.094,0,0,0-.409.082L-10234.8,4.7l3.546-3.073a5.043,5.043,0,0,0,1.5,1.546l-4.342,3.764a1.087,1.087,0,0,1-.705.262,1.083,1.083,0,0,1-.705-.262L-10249.849-5.5Z" transform="translate(11341 601)" fill="#3a7217"/>
    <circle id="Ellipse_92" data-name="Ellipse 92" cx="1" cy="1" r="1" transform="translate(1113 599)" fill="#3a7217"/>
  </g>
</svg>
