<svg xmlns="http://www.w3.org/2000/svg" width="234.001" height="474.998" viewBox="0 0 234.001 474.998">
  <g id="Subtraction_11" data-name="Subtraction 11" transform="translate(-8631.999 8055.999)" fill="none">
    <path d="M8654.862-7581a190.82,190.82,0,0,1-22.863-1.376v-472.245a190.991,190.991,0,0,1,22.863-1.376,189.972,189.972,0,0,1,42.551,4.825,193.393,193.393,0,0,1,39.634,13.838,205.136,205.136,0,0,1,35.865,21.9,220.357,220.357,0,0,1,31.248,29,235.6,235.6,0,0,1,25.781,35.149,248.153,248.153,0,0,1,19.466,40.342,258.336,258.336,0,0,1,12.3,44.581A268.065,268.065,0,0,1,8866-7818.5a268.078,268.078,0,0,1-4.289,47.864,258.329,258.329,0,0,1-12.3,44.582,248.2,248.2,0,0,1-19.466,40.343,235.615,235.615,0,0,1-25.781,35.149,220.463,220.463,0,0,1-31.248,29,205.136,205.136,0,0,1-35.865,21.9,193.393,193.393,0,0,1-39.634,13.838A189.972,189.972,0,0,1,8654.862-7581Z" stroke="none"/>
    <path d="M 8654.8623046875 -7585.0009765625 C 8668.8857421875 -7585.0009765625 8682.900390625 -7586.58984375 8696.515625 -7589.72412109375 C 8709.787109375 -7592.7783203125 8722.845703125 -7597.337890625 8735.328125 -7603.2763671875 C 8747.587890625 -7609.10986328125 8759.4189453125 -7616.33349609375 8770.4921875 -7624.74658203125 C 8781.4658203125 -7633.0869140625 8791.7880859375 -7642.66748046875 8801.1708984375 -7653.220703125 C 8810.55859375 -7663.7822265625 8819.0849609375 -7675.40673828125 8826.5126953125 -7687.77197265625 C 8834.013671875 -7700.26123046875 8840.45703125 -7713.615234375 8845.6630859375 -7727.46337890625 C 8850.966796875 -7741.5654296875 8855.0419921875 -7756.33203125 8857.775390625 -7771.3525390625 C 8860.5791015625 -7786.75830078125 8862 -7802.62158203125 8862 -7818.5009765625 C 8862 -7834.380859375 8860.5791015625 -7850.24365234375 8857.775390625 -7865.6484375 C 8855.0419921875 -7880.66943359375 8850.966796875 -7895.435546875 8845.6630859375 -7909.5380859375 C 8840.45703125 -7923.38525390625 8834.013671875 -7936.7392578125 8826.5126953125 -7949.228515625 C 8819.0849609375 -7961.59375 8810.55859375 -7973.21875 8801.1708984375 -7983.779296875 C 8791.7890625 -7994.3330078125 8781.466796875 -8003.91259765625 8770.4921875 -8012.2529296875 C 8759.4189453125 -8020.66650390625 8747.587890625 -8027.89013671875 8735.328125 -8033.72314453125 C 8722.845703125 -8039.662109375 8709.787109375 -8044.2216796875 8696.515625 -8047.27587890625 C 8682.900390625 -8050.40966796875 8668.8857421875 -8051.9990234375 8654.8623046875 -8051.9990234375 C 8648.580078125 -8051.9990234375 8642.25 -8051.677734375 8635.9990234375 -8051.04296875 L 8635.9990234375 -7585.95654296875 C 8642.24609375 -7585.32177734375 8648.5751953125 -7585.0009765625 8654.8623046875 -7585.0009765625 M 8654.8623046875 -7581.0009765625 C 8647.232421875 -7581.0009765625 8639.5400390625 -7581.4638671875 8631.9990234375 -7582.37744140625 L 8631.9990234375 -8054.62255859375 C 8639.546875 -8055.5361328125 8647.2392578125 -8055.9990234375 8654.8623046875 -8055.9990234375 C 8669.1865234375 -8055.9990234375 8683.50390625 -8054.37548828125 8697.4130859375 -8051.173828125 C 8710.9697265625 -8048.05419921875 8724.3037109375 -8043.39794921875 8737.046875 -8037.33544921875 C 8749.55859375 -8031.38232421875 8761.6240234375 -8024.0146484375 8772.912109375 -8015.43798828125 C 8784.091796875 -8006.94189453125 8794.60546875 -7997.1845703125 8804.16015625 -7986.43701171875 C 8813.712890625 -7975.69091796875 8822.38671875 -7963.865234375 8829.94140625 -7951.2880859375 C 8837.5654296875 -7938.59423828125 8844.115234375 -7925.02099609375 8849.4072265625 -7910.94580078125 C 8854.796875 -7896.61572265625 8858.935546875 -7881.61669921875 8861.7109375 -7866.36474609375 C 8864.5576171875 -7850.72021484375 8866 -7834.61669921875 8866 -7818.5009765625 C 8866 -7802.3857421875 8864.5576171875 -7786.28173828125 8861.7109375 -7770.63671875 C 8858.935546875 -7755.38427734375 8854.796875 -7740.38525390625 8849.4072265625 -7726.05517578125 C 8844.115234375 -7711.98046875 8837.5654296875 -7698.40673828125 8829.94140625 -7685.71240234375 C 8822.3876953125 -7673.13671875 8813.7138671875 -7661.310546875 8804.16015625 -7650.56298828125 C 8794.6044921875 -7639.8154296875 8784.0908203125 -7630.05810546875 8772.912109375 -7621.56201171875 C 8761.6240234375 -7612.9853515625 8749.55859375 -7605.61767578125 8737.046875 -7599.66455078125 C 8724.3037109375 -7593.60205078125 8710.9697265625 -7588.94580078125 8697.4130859375 -7585.826171875 C 8683.50390625 -7582.62451171875 8669.1865234375 -7581.0009765625 8654.8623046875 -7581.0009765625 Z" stroke="none" fill="#3b3b3b"/>
  </g>
</svg>
